<svg width="332" height="524" viewBox="0 0 332 524" fill="none" xmlns="http://www.w3.org/2000/svg">
<circle cx="165.732" cy="166.518" r="155" fill="white"/>
<path d="M92.5551 249.822C69.119 244.169 38.5135 260.47 22.9526 242.247C5.88203 204.944 -2.75782 158.289 12.1822 115.443C46.5129 -0.457534 202.063 -36.9952 288.226 54.7739C344.255 110.803 343.693 218.278 290.331 271.444C311.63 239.221 300.866 195.937 271.731 172.315C245.687 158.851 237.041 100.482 278.776 113.012C304.16 122.542 273.005 158.308 271.437 128.039C253.471 135.386 275.365 158.988 288.893 146.007C328.178 95.364 227.081 74.6768 228.989 135.882C231.172 184.61 317.61 208.794 272.633 270.412C283.691 231.508 262.392 192.035 225.983 172.714C203.599 164.524 151.159 127.79 185.62 106.979C200.39 111.313 205.638 107.901 215.278 98.6845C219.67 93.2921 208.958 86.2394 213.5 79.5724C219.892 73.4872 214.827 58.5976 209.291 54.1529C205.671 50.6364 201.566 48.5187 204.834 43.8649C207.88 40.551 216.905 24.7201 208.579 26.5895C202.017 29.9165 193.142 38.5705 194.443 25.3672C195.305 23.7201 193.894 24.2495 193.208 24.0796C194.848 21.7919 190.783 18.831 189.522 21.2429C183.065 27.2497 173.81 33.0931 170.262 39.1718C165.066 49.0089 159.112 47.6363 166.236 37.76C169.111 38.7274 169.856 34.6357 168.229 34.1324C150.544 40.2045 136.356 59.212 127.84 76.5135C82.1115 163.112 136.735 179.728 143.447 253.202C149.917 335.709 86.3007 300.034 49.4539 262.405C66.2434 249.835 114.854 259.476 125.853 255.718C119.775 253.607 108.632 253.45 103.332 248.966C101.149 250.881 96.8032 249.535 96.4764 250.476C94.5681 251.796 93.1956 247.201 92.5617 249.816L92.5551 249.822ZM105.044 232.965C100.064 215.35 115.861 177.839 95.1236 171.518C78.5235 175.806 44.9509 161.335 38.2325 180.414C42.0231 196.003 29.6318 242.639 45.9705 245.554C61.8777 241.358 107.815 256.398 105.044 232.965ZM53.3686 134.935C54.8718 144.7 49.7937 160.472 55.5253 167.714C65.4526 167.145 85.0132 173.668 89.9017 163.197C89.0913 144.484 89.8952 125.843 89.4181 107.136C89.0325 93.011 70.9489 100.149 61.7601 98.3903C46.0358 99.8806 56.0154 124.111 53.3621 134.935H53.3686ZM130.134 256.836C129.879 257.287 129.99 257.457 130.461 257.594C130.735 257.15 130.546 257.006 130.134 256.836Z" fill="white"/>
<path d="M215.95 189.839C240.072 191.27 262.973 209.029 269.508 232.207C245.909 193.787 175.639 184.42 170.555 244.606C167.64 293.183 223.479 318.975 262.888 295.53C267.247 300.511 244.562 306.158 237.883 308.067C200.932 316.681 159.51 285.935 159.771 247.501C154.556 243.593 162.719 264.607 153.164 259.103C146.916 222.082 177.737 183.596 215.95 189.826V189.839ZM160.36 241.272C159.588 241.684 158.928 242.018 158.85 242.822C159.771 244.024 160.739 242.658 160.36 241.272Z" fill="white"/>
<path d="M234.328 284.85C173.973 294.157 172.477 183.753 228.91 221.873C243.693 239.612 211.716 266.705 202.559 243.612C216.689 254.606 233.171 235.03 214.937 227.03C171.993 228.422 202.886 289.013 234.328 284.85Z" fill="#FCFCFC"/>
<path d="M153.164 259.117C169.097 283.844 179.437 314.473 221.531 314.584C203.879 322.571 155.04 300.466 153.164 259.117Z" fill="#FCFCFC"/>
<path d="M162.197 199.879C178.059 170.786 195.044 169.361 212.311 174.806C191.489 175.649 175.686 185.408 162.197 199.879Z" fill="#FCFCFC"/>
<path d="M203.148 322.905C183.613 324.199 157.615 315.035 154.877 292.988C166.458 310.355 184.247 317.408 203.148 322.905Z" fill="#FCFCFC"/>
<path d="M193.188 66.4023C202.559 69.9123 206.984 80.2854 206.317 89.2204C196.187 87.521 196.409 73.004 193.188 66.4023Z" fill="#FCFCFC"/>
<path d="M148.008 155.588C143.688 163.889 141.512 172.778 140.669 182.151C137.198 178.641 142.976 159.719 148.008 155.588Z" fill="#FCFCFC"/>
<path d="M267.418 232.998C273.156 232.142 273.267 250.025 273.052 255.849C271.94 248.038 270.568 240.293 267.418 232.998Z" fill="#FCFCFC"/>
<path d="M265.457 296.484C264.562 296.269 263.523 296.465 262.889 295.537C276.234 286.523 281.025 286.379 265.457 296.484Z" fill="#FCFCFC"/>
<path d="M290.33 271.438C292.285 276.15 282.56 282.268 278.338 285.87C282.344 281.039 287.069 276.863 290.33 271.438Z" fill="#FCFCFC"/>
<path d="M161.955 45.8125C166.366 47.6688 161.543 49.9826 159.746 53.6691C159.661 50.4925 161.053 48.2178 161.955 45.8125Z" fill="#FCFCFC"/>
<path d="M99.7178 250.645C101.933 249.05 106.299 247.481 106.266 251.769C104.116 251.22 101.783 251.684 99.7178 250.645Z" fill="#FCFCFC"/>
<path d="M285.711 52.1721C283.064 52.1328 280.842 51.6099 281.227 48.1719C283.168 49.0085 284.345 50.6949 285.711 52.1721Z" fill="#FCFCFC"/>
<path d="M51.434 259.182C51.5908 260.758 49.3884 260.882 49.4537 262.398C45.4932 259.607 47.4016 258.594 51.434 259.182Z" fill="#FCFCFC"/>
<path d="M71.668 33.2227C71.0013 36.6019 69.7661 37.4647 67.0801 36.4385C68.348 34.994 69.9099 33.9678 71.668 33.2227Z" fill="#FCFCFC"/>
<path d="M136.421 215.944C133.735 215.428 133.813 213.944 135.055 212.049C135.748 213.265 136.362 214.506 136.421 215.944Z" fill="#FCFCFC"/>
<path d="M168.869 34.4004C169.078 36.3678 169.144 38.2372 166.235 37.76C167.19 36.6162 167.823 34.6226 168.869 34.4004Z" fill="#FCFCFC"/>
<path d="M215.95 189.84C214.506 190.663 213.061 191.461 212.016 189.31C213.349 189.33 214.767 188.696 215.95 189.84Z" fill="#FCFCFC"/>
<path d="M169.582 206.043C169.444 207.67 169.536 209.514 166.941 208.742C167.673 207.697 168.471 206.723 169.582 206.043Z" fill="#FCFCFC"/>
<path d="M324.19 118.083C322.145 117.567 321.772 116.462 323.047 114.789C323.805 115.756 324.223 116.841 324.19 118.083Z" fill="#FCFCFC"/>
<path d="M21.5664 239.494C23.4552 239.69 24.9714 240.069 22.9519 242.239C22.4879 241.324 22.0304 240.409 21.5664 239.494Z" fill="#FCFCFC"/>
<path d="M33.7291 71.5391C34.3696 73.3692 34.4742 74.8137 31.7881 74.3104C32.4351 73.3888 33.0821 72.4607 33.7291 71.5391Z" fill="#FCFCFC"/>
<path d="M142.884 265.626C140.91 264.345 141.335 263.515 143.381 262.992C143.315 263.888 143.943 264.914 142.884 265.626Z" fill="#FCFCFC"/>
<path d="M195.102 32.5703C197.644 32.701 196.932 35.0672 194.782 34.4005C193.762 33.8318 194.88 33.1782 195.102 32.5703Z" fill="#FCFCFC"/>
<path d="M172.222 37.1848C172.059 35.4461 172.719 34.4395 174.601 34.5245C173.967 35.5572 173.353 36.603 172.222 37.1848Z" fill="#FCFCFC"/>
<path d="M20.6129 94.5273C22.1161 96.3248 21.0638 96.9 19.3516 97.1549C19.4627 96.1287 19.9332 95.279 20.6129 94.5273Z" fill="#FCFCFC"/>
<path d="M270.195 38.413C268.724 38.511 267.267 38.5829 267.535 36.3867C268.541 36.9031 269.515 37.4652 270.195 38.413Z" fill="#FCFCFC"/>
<path d="M230.237 144.842C228.42 144.313 228.734 143.333 229.675 142.215C230.669 142.921 230.126 143.953 230.237 144.842Z" fill="#FCFCFC"/>
<path d="M143.433 255.816C141.63 254.946 141.623 254.077 143.433 253.201C143.433 254.07 143.433 254.94 143.433 255.816Z" fill="#FCFCFC"/>
<path d="M54.6689 268.293C56.6492 266.96 56.329 268.718 56.5838 269.712C55.6427 269.646 55.0545 269.11 54.6689 268.293Z" fill="#FCFCFC"/>
<path d="M174.751 201.389C175.621 203.716 173.719 202.696 172.869 202.951C173.209 202.082 173.81 201.526 174.751 201.389Z" fill="#FCFCFC"/>
<path d="M288.226 54.7672C286.834 54.8979 286.311 54.1855 286.403 52.8848C287.161 53.3684 287.958 53.8064 288.226 54.7672Z" fill="#FCFCFC"/>
<path d="M244.759 171.57C243.23 171.772 242.537 171.119 242.72 169.576C243.504 170.138 244.419 170.557 244.759 171.57Z" fill="#FCFCFC"/>
<path d="M143.303 248.638C141.911 248.233 141.839 247.56 142.892 246.645C143.898 247.128 143.303 247.945 143.303 248.638Z" fill="#FCFCFC"/>
<path d="M186.633 147.458C188.025 147.328 188.646 147.955 188.515 149.341C187.58 149.02 186.96 148.386 186.633 147.458Z" fill="#FCFCFC"/>
<path d="M269.568 218.605C270.123 218.677 270.908 218.422 271.078 219.174C271.045 220.521 268.941 219.821 269.568 218.605Z" fill="#FCFCFC"/>
<path d="M6.29344 142.195C7.38486 143.117 7.30643 143.797 5.87516 144.195C5.80981 143.489 5.33273 142.692 6.29344 142.195Z" fill="#FCFCFC"/>
<path d="M170.261 39.1721C170.078 37.6753 170.712 36.9825 172.235 37.1655C171.83 38.0871 171.189 38.7734 170.261 39.1721Z" fill="#FCFCFC"/>
<path d="M249.758 189.931C251.379 189.715 252.006 190.46 251.758 192.029C250.895 191.519 250.241 190.807 249.758 189.931Z" fill="#FCFCFC"/>
<path d="M209.291 54.1531C210.971 53.9701 211.598 54.5126 210.677 56.1401C209.853 55.7283 209.722 54.8394 209.291 54.1531Z" fill="#FCFCFC"/>
<path d="M214.618 77.5972C214.618 78.4665 214.755 79.4143 213.5 79.5711C213.317 78.5972 212.958 77.5253 214.618 77.5972Z" fill="#FCFCFC"/>
<path d="M203.455 48.9171C204.867 48.7406 205.625 49.2766 205.488 50.7799C204.442 50.5577 204.043 49.6361 203.455 48.9171Z" fill="#FCFCFC"/>
<path d="M46.6634 55.3418C47.4476 56.5641 47.4215 56.5968 45.4805 56.6948C45.8726 56.2438 46.2713 55.7928 46.6634 55.3418Z" fill="#FCFCFC"/>
<path d="M253.334 180.669C252.746 180.388 250.668 181.616 252.001 179.361C252.628 179.61 253.073 180.048 253.334 180.669Z" fill="#FCFCFC"/>
<path d="M38.3428 65.127C38.114 65.7675 39.0486 67.48 37.0684 66.5192C37.4932 66.0551 37.918 65.591 38.3428 65.127Z" fill="#FCFCFC"/>
<path d="M279.913 46.891C277.795 47.9564 278.913 46.0935 278.645 45.4922C279.351 45.7013 279.73 46.2112 279.913 46.891Z" fill="#FCFCFC"/>
<path d="M23.9393 87.8477C24.0242 88.8738 24.1288 89.9066 22.6518 89.9915C22.606 88.9915 23.2269 88.3902 23.9393 87.8477Z" fill="#FCFCFC"/>
<path d="M193.207 24.0859C193.893 24.2493 195.298 23.7264 194.442 25.3736C193.821 25.1448 193.253 24.8638 193.207 24.0859Z" fill="#FCFCFC"/>
<path d="M78.8499 28.0981C78.6669 28.7975 79.1963 30.3596 77.4971 29.2027C77.8631 28.7321 78.0852 28.0785 78.8499 28.0981Z" fill="#FCFCFC"/>
<path d="M31.1479 75.5254C31.2133 76.5581 31.2394 77.5647 29.7755 77.5712C29.7101 76.5385 30.4552 76.0483 31.1479 75.5254Z" fill="#FCFCFC"/>
<path d="M240.047 165.746C239.381 165.537 237.799 166.158 238.838 164.406C239.453 164.661 239.864 165.099 240.047 165.746Z" fill="#FCFCFC"/>
<path d="M206.135 201.519C206.311 200.63 206.586 200.003 207.461 201.035C207.226 201.754 206.684 201.643 206.135 201.519Z" fill="#FCFCFC"/>
<path d="M12.8025 114.123C13.9462 115.202 13.077 115.326 12.1816 115.443C12.3908 115.005 12.5934 114.568 12.8025 114.123Z" fill="#FCFCFC"/>
<path d="M275.567 242.104C276.731 242.136 276.534 243.502 275.437 243.417C275.482 242.979 275.521 242.541 275.567 242.104Z" fill="#FCFCFC"/>
<path d="M153.119 243.357C154.23 244.174 153.707 244.514 152.72 244.723C152.616 244.201 152.433 243.652 153.119 243.357Z" fill="#FCFCFC"/>
<path d="M215.885 74.9844C216.911 75.8668 216.278 76.1348 215.395 76.3047C215.284 75.7622 215.075 75.1805 215.885 74.9844Z" fill="#FCFCFC"/>
<path d="M92.5548 249.821C92.5091 248.638 93.9207 248.651 93.8619 249.828C93.424 249.828 92.9927 249.828 92.5548 249.821Z" fill="#FCFCFC"/>
<path d="M204.834 43.8649C204.638 44.6754 203.592 45.4924 203.638 44.1721C203.847 43.5119 204.383 43.7734 204.834 43.8649Z" fill="#FCFCFC"/>
<path d="M33.7686 250.038C34.6247 248.966 34.9253 249.554 35.1149 250.489C34.5789 250.6 34.0169 250.789 33.7686 250.038Z" fill="#FCFCFC"/>
<path d="M40.3367 250.488C40.2779 249.312 41.6896 249.286 41.6438 250.469C41.206 250.469 40.7746 250.482 40.3367 250.488Z" fill="#FCFCFC"/>
<path d="M96.4696 250.482C96.4107 249.312 97.8224 249.279 97.7767 250.463C97.3388 250.469 96.9009 250.476 96.4696 250.482Z" fill="#FCFCFC"/>
<path d="M6.50264 189.885C7.49603 190.1 7.99272 190.453 6.88823 191.257C6.20855 190.957 6.39808 190.408 6.50264 189.885Z" fill="#FCFCFC"/>
<path d="M124.48 255.319C125.304 254.208 125.644 254.738 125.846 255.718C125.324 255.803 124.775 255.999 124.48 255.319Z" fill="#FCFCFC"/>
<path d="M204.801 107.553C204.684 108.474 204.533 109.318 203.475 108.161C203.697 107.481 204.318 107.657 204.801 107.553Z" fill="#FCFCFC"/>
<path d="M213.349 9.64032C212.342 10.7319 212.159 9.93445 212.016 9.05859C212.512 9.13049 213.153 8.88211 213.349 9.64032Z" fill="#FCFCFC"/>
<path d="M114.082 302.864C114.971 301.825 115.232 302.466 115.409 303.355C114.866 303.472 114.304 303.616 114.082 302.864Z" fill="#FCFCFC"/>
<path d="M8.54176 200.33C9.48287 200.546 9.94687 200.899 8.92081 201.677C8.13656 201.415 8.39798 200.853 8.54176 200.33Z" fill="#FCFCFC"/>
<path d="M5.8628 186.623C6.77123 186.8 7.37903 187.087 6.33335 187.956C5.54256 187.734 5.76477 187.159 5.8628 186.623Z" fill="#FCFCFC"/>
<path d="M215.277 98.6907C215.225 99.9392 214.526 99.3509 213.964 99.1483C214.245 98.5469 214.774 98.6646 215.277 98.6907Z" fill="#FCFCFC"/>
<path d="M192.704 66.9046C192.26 66.702 191.816 66.4994 191.352 66.2902C191.992 65.3032 193.815 66.1268 192.704 66.9046Z" fill="#FCFCFC"/>
<path d="M283.292 101.749C283.932 101.376 284.481 101.193 284.468 102.278C283.985 102.304 283.351 102.67 283.292 101.749Z" fill="#FCFCFC"/>
<path d="M271.815 272.006C271.253 271.476 271.587 271.3 271.959 270.875C272.463 271.287 272.077 271.568 271.815 272.006Z" fill="#FCFCFC"/>
<path d="M82.1045 289.105C82.3202 289.275 82.5358 289.439 82.7515 289.609C82.2679 289.785 82.1437 289.498 82.1045 289.105Z" fill="#FCFCFC"/>
<path d="M210.068 493.885L210.572 493.428C210.65 493.846 210.526 494.049 210.068 493.885Z" fill="#FCFCFC"/>
<path d="M78.8369 287.15C79.0526 287.32 79.2748 287.49 79.4905 287.66C79.0068 287.824 78.8827 287.543 78.8369 287.15Z" fill="#FCFCFC"/>
<path d="M94.3984 295.68C94.6533 295.843 94.9017 296.007 95.1566 296.17C94.6991 296.32 94.5161 296.059 94.3984 295.68Z" fill="#FCFCFC"/>
<path d="M211.349 101.945C211.101 102.102 210.846 102.266 210.598 102.423C210.741 102.096 210.846 101.71 211.349 101.945Z" fill="#FCFCFC"/>
<path d="M56.74 270.182C56.923 270.358 57.106 270.535 57.2956 270.711C56.8446 270.816 56.6812 270.62 56.74 270.182Z" fill="#FCFCFC"/>
<path d="M290.559 107.652C290.762 107.711 290.905 107.842 290.977 108.045C290.513 108.26 290.409 108.097 290.559 107.652Z" fill="#FCFCFC"/>
<path d="M272.686 97.207L273.365 97.7365C272.901 97.8672 272.751 97.5861 272.686 97.207Z" fill="#FCFCFC"/>
<path d="M18.1486 97.4688L18.1747 97.7498C17.7368 97.606 17.5996 97.5014 18.1486 97.4688Z" fill="#FCFCFC"/>
<path d="M214.088 90.0234C214.264 90.2522 214.434 90.481 214.61 90.7097C214.238 90.6313 213.95 90.4875 214.088 90.0234Z" fill="#FCFCFC"/>
<path d="M174.79 119.352C174.79 119.6 174.79 119.848 174.784 120.097C174.366 119.757 174.209 119.535 174.79 119.352Z" fill="#FCFCFC"/>
<path d="M27.2795 81.5137C27.103 81.7294 26.9331 81.9516 26.7567 82.1673C26.6259 81.7098 26.8874 81.5594 27.2795 81.5137Z" fill="#FCFCFC"/>
<path d="M297.52 256.449C297.35 256.671 297.18 256.887 297.01 257.109C296.86 256.645 297.141 256.515 297.52 256.449Z" fill="#FCFCFC"/>
<path d="M189.248 150.072C189.437 150.255 189.627 150.438 189.816 150.621C189.359 150.713 189.182 150.517 189.248 150.072Z" fill="#FCFCFC"/>
<path d="M194.998 155.309C195.22 155.446 195.442 155.59 195.671 155.727C195.194 155.988 195.109 155.629 194.998 155.309Z" fill="#FCFCFC"/>
<path d="M198.285 157.256C198.507 157.439 198.723 157.622 198.945 157.805C198.481 157.916 198.324 157.655 198.285 157.256Z" fill="#FCFCFC"/>
<path d="M26.6123 246.678C26.8345 246.874 27.0567 247.063 27.2789 247.259C26.8214 247.331 26.645 247.083 26.6123 246.678Z" fill="#FCFCFC"/>
<path d="M208.023 163.15L208.736 163.654C208.272 163.811 208.108 163.543 208.023 163.15Z" fill="#FCFCFC"/>
<path d="M273.528 231.67C273.685 231.912 273.842 232.16 273.998 232.402C273.639 232.291 273.332 232.141 273.528 231.67Z" fill="#FCFCFC"/>
<path d="M248.027 188.584C248.203 188.767 248.38 188.943 248.563 189.126C248.118 189.211 247.935 189.035 248.027 188.584Z" fill="#FCFCFC"/>
<path d="M240.445 428.15L240.314 428.189C240.347 427.758 240.386 427.66 240.445 428.15Z" fill="#FCFCFC"/>
<path d="M253.784 427.609C253.542 427.779 253.3 427.942 253.059 428.112C253.17 427.759 253.313 427.446 253.784 427.609Z" fill="#FCFCFC"/>
<path d="M11.7499 213.395C11.9133 213.63 12.0767 213.872 12.24 214.107C11.8871 214.002 11.5734 213.865 11.7499 213.395Z" fill="#FCFCFC"/>
<path d="M184.58 194.65C184.364 194.8 184.155 194.957 183.939 195.107C183.985 194.728 184.07 194.395 184.58 194.65Z" fill="#FCFCFC"/>
<path d="M119.311 9.2353C119.063 9.38564 118.815 9.53596 118.566 9.6863C118.691 9.33334 118.828 9.00654 119.311 9.2353Z" fill="#FCFCFC"/>
<path d="M31.8139 74.2832L31.2714 74.9891C31.1734 74.5446 31.4217 74.3551 31.8139 74.2832Z" fill="#FCFCFC"/>
<path d="M183.273 195.317C183.038 195.467 182.796 195.617 182.561 195.768C182.691 195.447 182.789 195.068 183.273 195.317Z" fill="#FCFCFC"/>
<path d="M133.689 66.3691C133.853 66.2057 134.01 66.0423 134.173 65.8789C134.31 66.3364 134.134 66.4868 133.689 66.3691Z" fill="#FCFCFC"/>
<path d="M257.66 210.623L257.646 210.375C258.176 210.395 258.137 210.486 257.66 210.623Z" fill="#FCFCFC"/>
<path d="M229.57 202.316C229.806 202.486 230.047 202.663 230.283 202.833C229.819 202.97 229.662 202.689 229.57 202.316Z" fill="#FCFCFC"/>
<path d="M84.627 290.445C84.8753 290.622 85.1237 290.805 85.3655 290.981C84.9211 291.079 84.7184 290.837 84.627 290.445Z" fill="#FCFCFC"/>
<path d="M104.867 238.808C104.926 236.86 104.985 234.913 105.044 232.965C107.619 235.331 107.553 237.573 104.867 238.808Z" fill="#FCFCFC"/>
<path d="M38.559 240.73C39.1537 241.012 38.9446 241.619 39.1014 242.077C38.1407 241.94 37.3499 241.737 38.559 240.73Z" fill="#FCFCFC"/>
<path d="M130.133 256.842C130.545 257.012 130.735 257.156 130.46 257.6C129.99 257.463 129.879 257.293 130.133 256.842Z" fill="#FCFCFC"/>
<path d="M168.869 34.3994C168.464 34.5105 168.078 34.6674 168.222 34.1314C168.523 33.9419 168.751 34.0595 168.869 34.3994Z" fill="#010101"/>
<path d="M98.959 245.319C99.0832 244.946 99.2661 244.672 99.7236 244.881C99.4687 245.025 99.2139 245.175 98.959 245.319Z" fill="#FCFCFC"/>
<path d="M160.36 241.266C160.739 242.651 159.779 244.017 158.851 242.815C158.929 242.011 159.589 241.677 160.36 241.266Z" fill="#FCFCFC"/>
<path d="M100.404 209.559C102.195 239.619 101.509 239.227 72.23 237.717C35.2981 241.789 44.1994 231.724 43.8204 201.52C47.5064 208.108 41.1278 235.325 59.2963 235.469C82.6802 236.194 102.084 239.717 100.411 209.559H100.404Z" fill="#FCFCFC"/>
<path d="M56.4005 218.88C49.6167 210.768 57.6684 200.853 52.891 193.513C46.9633 190.519 51.4009 177.675 57.7599 183.225C60.3545 184.493 63.8901 180.466 65.9227 184.591C68.014 197.742 46.8784 200.232 56.394 218.88H56.4005Z" fill="#FCFCFC"/>
<path d="M67.6415 100.704C54.3811 116.424 68.0337 148.288 60.5833 165.707C58.407 157.164 51.401 95.8019 67.6415 100.704Z" fill="#FCFCFC"/>
<mask id="mask0_39_10341" style="mask-type:luminance" maskUnits="userSpaceOnUse" x="0" y="0" width="333" height="333">
<path d="M166 332.042C257.68 332.042 332.001 257.712 332.001 166.021C332.001 74.3301 257.68 0 166 0C74.3209 0 0 74.3301 0 166.021C0 257.712 74.3209 332.042 166 332.042Z" fill="white"/>
</mask>
<g mask="url(#mask0_39_10341)">
<path d="M504.452 -88.1868C496.609 730.356 653.525 572.054 -164.007 580.211C-156.152 -238.266 -313.015 -80.023 504.452 -88.1868ZM172.235 37.1722C182.365 27.8253 196.018 8.2623 194.776 34.4073C199.344 33.3615 203.625 28.3286 208.572 26.5965C218.663 24.9167 204.468 43.5516 204.239 44.9503C201.997 53.9181 222.349 60.6962 215.389 76.3113C205.252 91.5539 228.244 92.201 204.795 107.555C162.367 101.665 169.863 135.17 194.991 155.309C239.334 175.937 289.749 215.043 272.626 270.412C317.446 213.625 233.838 185.016 228.976 135.876C225.865 91.2401 299.055 81.5926 297.65 129.432C300.238 155.956 251.981 153.897 268.456 129.366C274.443 123.412 267.894 139.811 277.685 139.622C309.349 130.909 266.149 93.0507 253.235 119.483C231.623 168.989 327.047 190.454 297.507 256.451C293.585 267.249 286.775 277.53 278.332 285.87C291.997 276.014 300.702 260.908 308.78 246.476C397.094 94.6259 211.121 -67.9047 71.6545 33.2308C4.45054 78.8147 -15.6133 177.604 26.5992 246.685C47.7087 256.594 76.3274 244.757 99.7047 250.653C112.377 252.477 141.898 258.516 113.253 255.817C98.1819 258.457 34.213 249.947 54.6558 268.294C61.4919 274.824 70.0534 281.883 78.8305 287.158C93.8293 295.675 126.944 317.159 138.44 292.753C165.981 219.455 93.7443 183.545 113.305 119.072C117.697 99.8222 124.454 80.1154 134.937 64.0362C139.741 52.1533 177.509 19.7269 161.955 45.8196C155.615 61.6243 167.405 41.8717 172.235 37.1722ZM193.181 66.4089C189.319 64.4284 197.429 70.6313 195.737 73.9191C195.161 80.3573 200.743 88.1616 206.317 89.227C206.984 80.2919 202.56 69.9188 193.188 66.4089H193.181ZM210.565 493.436C211.356 476.808 193.116 501.39 197.789 468.853C186.6 458.068 191.345 485.246 190.443 492.024C193.305 496.345 205.912 493.469 210.565 493.436ZM119.984 466.853C110.384 464.48 115.337 475.899 114.213 482.017C108.443 479.938 102.031 459.134 94.5743 468.716C95.424 475.187 91.0256 502.632 101.705 491.789C100.476 460.31 105.887 496.521 119.435 493.978C122.37 487.213 120.285 474.082 119.984 466.853ZM363.534 404.647C364.599 415.844 357.123 453.552 376.252 436.799C378.553 420.681 371.2 396.137 378.879 383.947C382.99 382.999 392.212 386.542 393.512 381.921C392.467 379.038 395.662 372.437 391.395 372.175C377.54 374.156 357.319 368.43 346.444 374.371C344.555 398.307 368.919 366.025 363.534 404.647ZM150.76 373.306C150.773 395.287 150.779 417.269 150.792 439.25C161.099 440.832 174.268 439.394 185.509 439.897C193.652 441.76 195.429 438.486 194.057 430.858C184.803 421.393 158.354 440.08 164.288 413.484C168.079 405.889 187.208 418.713 183.195 402.941C182.888 394.843 164.66 405.183 164.262 397.065C158.955 374.097 183.267 390.346 193.345 381.136C201.932 365.953 158.844 373.143 150.753 373.299L150.76 373.306ZM253.778 427.616C208.265 441.473 215.938 361.09 259.947 386.418C264.137 392.241 268.156 388.039 271.397 383.607C263.326 358.469 209.958 369.855 208.958 399.091C201.716 433.348 247.353 455.244 271.45 431.021C275.332 427.603 267.79 424.727 266.156 421.929C262.307 419.498 258.516 427.485 253.778 427.609V427.616ZM299.467 391.562C294.873 406.033 281.567 426.518 281.194 439.799C299.284 444.669 293.886 427.851 303.179 421.498C328.053 418.766 320.91 424.825 332.066 439.956C358.744 443.603 323.295 399.013 320.792 383.11C311.76 353.272 307.623 371.535 299.461 391.562H299.467ZM-2.76461 389.627C-30.2462 446.63 74.7458 462.088 65.7857 399.203C61.603 365.75 10.1494 358.939 -2.76461 389.627ZM262.882 295.537C213.01 327.434 144.995 270.576 179.522 218.279C208.866 179.506 273.253 210.154 273.038 255.849C278.338 179.454 159.288 162.394 153.112 243.359C143.224 287.707 198.743 325.709 221.519 314.584C191.299 313.872 160.687 291.413 158.334 259.725C156.485 247.895 159.805 240.025 160.465 257.425C191.861 357.449 299.251 277.51 262.882 295.537ZM105.489 415.543C97.3454 403.026 95.7115 360.253 76.615 374.777C86.9475 391.379 90.6988 435.577 108.044 439.904C117.239 421.276 129.663 391.313 132.722 372.371C111.018 368.463 114.357 400.811 105.495 415.537L105.489 415.543ZM-55.4534 402.366C-53.63 413.321 -59.7276 432.518 -52.9242 439.989C-42.6504 438.008 -1.74508 447.081 -17.3909 428.309C-24.2924 426.544 -40.1474 432.577 -42.4021 425.152C-43.0034 405.66 -41.1015 384.267 -42.9119 365.312C-64.1913 357.318 -52.7935 390.006 -55.4599 402.366H-55.4534ZM234.322 284.851C202.873 289.008 171.993 228.43 214.931 227.024C233.172 235.051 216.676 254.588 202.56 243.607C211.703 266.726 243.694 239.587 228.897 221.874C172.425 183.741 174.026 294.204 234.322 284.844V284.851ZM243.504 468.598C222.48 458.317 213.095 480.599 236.583 485.919C233.832 492.658 220.179 480.886 222.101 491.017C243.099 502.711 253.889 480.344 229.825 473.611C234.132 470.206 240.694 477.01 243.504 468.598ZM145.041 466.657C136.172 468.108 136.133 484.547 131.245 491.665C129.127 496.344 138.238 493.521 138.917 491.54C139.61 489.122 140.917 487.985 143.551 488.357C152.184 485.913 149.773 496.39 157.733 493.501C159.752 490.573 150.283 466.271 145.041 466.657ZM162.19 199.879C175.679 185.408 191.482 175.649 212.304 174.806C195.037 169.368 178.052 170.786 162.19 199.879ZM203.141 322.905C184.241 317.408 166.451 310.355 154.87 292.988C157.615 315.042 183.6 324.192 203.141 322.905ZM177.457 480.246C176.039 476.585 180.45 466.042 174.359 466.644C172 466.65 169.752 466.088 170.144 469.33C170.261 475.716 170.176 482.109 170.176 488.494C170.176 493.599 170.176 493.514 175.346 493.469C179.947 492.508 176.365 483.984 177.457 480.246ZM148.008 155.59C142.976 159.714 137.192 178.636 140.669 182.153C141.518 172.78 143.688 163.891 148.008 155.59ZM271.809 272.007C272.071 271.569 272.456 271.288 271.953 270.876C271.587 271.301 271.247 271.477 271.809 272.007Z" fill="#010101"/>
</g>
<path d="M106.704 91.5176H34.1602V247.081H106.704V91.5176Z" fill="white"/>
<mask id="path-118-outside-1_39_10341" maskUnits="userSpaceOnUse" x="102.955" y="473.592" width="135" height="40" fill="black">
<rect fill="white" x="102.955" y="473.592" width="135" height="40"/>
<path d="M131.469 476.137V505.473C131.469 507.212 131.108 508.508 130.386 509.361C129.664 510.182 128.548 510.592 127.039 510.592H124.529L108.335 481.453V510.592H104.939V476.137H109.172L126.399 507.491H126.743C127.236 507.491 127.58 507.31 127.777 506.949C127.974 506.589 128.072 505.949 128.072 505.03V476.137H131.469ZM159.514 499.517H143.961L140.564 510.592H137.021L145.929 481.798C146.651 479.468 147.422 477.86 148.243 476.974C149.096 476.055 150.261 475.596 151.737 475.596C153.214 475.596 154.379 476.055 155.232 476.974C156.085 477.86 156.873 479.468 157.595 481.798L166.504 510.592H162.91L159.514 499.517ZM158.678 496.761L154.1 481.847C153.739 480.731 153.395 479.96 153.066 479.534C152.738 479.107 152.295 478.894 151.737 478.894C151.212 478.894 150.786 479.107 150.458 479.534C150.13 479.96 149.785 480.731 149.424 481.847L144.847 496.761H158.678ZM172.665 476.137H176.209V510.592H172.665V476.137ZM195.44 510.592C191.667 510.592 188.861 509.755 187.024 508.082C185.219 506.375 184.316 503.783 184.316 500.305V476.137H187.86V500.305C187.86 502.831 188.467 504.702 189.681 505.916C190.928 507.13 192.848 507.737 195.44 507.737H206.515V510.592H195.44ZM223.282 511.133C220.264 511.133 217.77 510.69 215.801 509.804C213.865 508.885 212.077 507.343 210.436 505.178L212.848 503.061C214.259 504.964 215.719 506.31 217.228 507.097C218.771 507.885 220.723 508.278 223.086 508.278C226.17 508.278 228.549 507.688 230.223 506.506C231.929 505.325 232.782 503.668 232.782 501.535C232.782 500.19 232.47 499.123 231.847 498.336C231.223 497.548 230.124 496.876 228.549 496.318C226.974 495.727 224.644 495.12 221.56 494.497C218.18 493.84 215.67 492.758 214.029 491.248C212.421 489.739 211.617 487.721 211.617 485.194C211.617 482.208 212.684 479.862 214.817 478.156C216.982 476.449 219.952 475.596 223.725 475.596C226.416 475.596 228.746 476.072 230.715 477.023C232.684 477.942 234.209 479.304 235.292 481.109L232.88 483.078C231.863 481.568 230.567 480.42 228.992 479.632C227.45 478.845 225.661 478.451 223.627 478.451C221.035 478.451 218.967 479.041 217.425 480.223C215.916 481.404 215.161 482.996 215.161 484.997C215.161 486.769 215.834 488.18 217.179 489.23C218.524 490.247 220.739 491.068 223.824 491.691C227.072 492.347 229.583 493.086 231.355 493.906C233.159 494.726 234.439 495.727 235.194 496.909C235.949 498.057 236.326 499.566 236.326 501.437C236.326 504.587 235.21 506.999 232.979 508.672C230.748 510.313 227.515 511.133 223.282 511.133Z"/>
</mask>
<path d="M131.469 476.137V505.473C131.469 507.212 131.108 508.508 130.386 509.361C129.664 510.182 128.548 510.592 127.039 510.592H124.529L108.335 481.453V510.592H104.939V476.137H109.172L126.399 507.491H126.743C127.236 507.491 127.58 507.31 127.777 506.949C127.974 506.589 128.072 505.949 128.072 505.03V476.137H131.469ZM159.514 499.517H143.961L140.564 510.592H137.021L145.929 481.798C146.651 479.468 147.422 477.86 148.243 476.974C149.096 476.055 150.261 475.596 151.737 475.596C153.214 475.596 154.379 476.055 155.232 476.974C156.085 477.86 156.873 479.468 157.595 481.798L166.504 510.592H162.91L159.514 499.517ZM158.678 496.761L154.1 481.847C153.739 480.731 153.395 479.96 153.066 479.534C152.738 479.107 152.295 478.894 151.737 478.894C151.212 478.894 150.786 479.107 150.458 479.534C150.13 479.96 149.785 480.731 149.424 481.847L144.847 496.761H158.678ZM172.665 476.137H176.209V510.592H172.665V476.137ZM195.44 510.592C191.667 510.592 188.861 509.755 187.024 508.082C185.219 506.375 184.316 503.783 184.316 500.305V476.137H187.86V500.305C187.86 502.831 188.467 504.702 189.681 505.916C190.928 507.13 192.848 507.737 195.44 507.737H206.515V510.592H195.44ZM223.282 511.133C220.264 511.133 217.77 510.69 215.801 509.804C213.865 508.885 212.077 507.343 210.436 505.178L212.848 503.061C214.259 504.964 215.719 506.31 217.228 507.097C218.771 507.885 220.723 508.278 223.086 508.278C226.17 508.278 228.549 507.688 230.223 506.506C231.929 505.325 232.782 503.668 232.782 501.535C232.782 500.19 232.47 499.123 231.847 498.336C231.223 497.548 230.124 496.876 228.549 496.318C226.974 495.727 224.644 495.12 221.56 494.497C218.18 493.84 215.67 492.758 214.029 491.248C212.421 489.739 211.617 487.721 211.617 485.194C211.617 482.208 212.684 479.862 214.817 478.156C216.982 476.449 219.952 475.596 223.725 475.596C226.416 475.596 228.746 476.072 230.715 477.023C232.684 477.942 234.209 479.304 235.292 481.109L232.88 483.078C231.863 481.568 230.567 480.42 228.992 479.632C227.45 478.845 225.661 478.451 223.627 478.451C221.035 478.451 218.967 479.041 217.425 480.223C215.916 481.404 215.161 482.996 215.161 484.997C215.161 486.769 215.834 488.18 217.179 489.23C218.524 490.247 220.739 491.068 223.824 491.691C227.072 492.347 229.583 493.086 231.355 493.906C233.159 494.726 234.439 495.727 235.194 496.909C235.949 498.057 236.326 499.566 236.326 501.437C236.326 504.587 235.21 506.999 232.979 508.672C230.748 510.313 227.515 511.133 223.282 511.133Z" fill="white"/>
<path d="M131.469 476.137H132.969V474.637H131.469V476.137ZM130.386 509.361L131.512 510.352L131.521 510.341L131.531 510.33L130.386 509.361ZM124.529 510.592L123.217 511.32L123.646 512.092H124.529V510.592ZM108.335 481.453L109.646 480.725L106.835 475.666V481.453H108.335ZM108.335 510.592V512.092H109.835V510.592H108.335ZM104.939 510.592H103.439V512.092H104.939V510.592ZM104.939 476.137V474.637H103.439V476.137H104.939ZM109.172 476.137L110.486 475.415L110.059 474.637H109.172V476.137ZM126.399 507.491L125.084 508.213L125.512 508.991H126.399V507.491ZM128.072 476.137V474.637H126.572V476.137H128.072ZM129.969 476.137V505.473H132.969V476.137H129.969ZM129.969 505.473C129.969 507.045 129.636 507.925 129.241 508.392L131.531 510.33C132.579 509.091 132.969 507.379 132.969 505.473H129.969ZM129.26 508.37C128.919 508.758 128.288 509.092 127.039 509.092V512.092C128.808 512.092 130.409 511.606 131.512 510.352L129.26 508.37ZM127.039 509.092H124.529V512.092H127.039V509.092ZM125.84 509.863L109.646 480.725L107.024 482.182L123.217 511.32L125.84 509.863ZM106.835 481.453V510.592H109.835V481.453H106.835ZM108.335 509.092H104.939V512.092H108.335V509.092ZM106.439 510.592V476.137H103.439V510.592H106.439ZM104.939 477.637H109.172V474.637H104.939V477.637ZM107.857 476.86L125.084 508.213L127.714 506.769L110.486 475.415L107.857 476.86ZM126.399 508.991H126.743V505.991H126.399V508.991ZM126.743 508.991C127.655 508.991 128.578 508.614 129.094 507.668L126.46 506.231C126.475 506.205 126.5 506.167 126.541 506.126C126.582 506.084 126.629 506.051 126.675 506.027C126.767 505.979 126.81 505.991 126.743 505.991V508.991ZM129.094 507.668C129.489 506.944 129.572 505.962 129.572 505.03H126.572C126.572 505.442 126.55 505.75 126.516 505.971C126.48 506.206 126.442 506.265 126.46 506.231L129.094 507.668ZM129.572 505.03V476.137H126.572V505.03H129.572ZM128.072 477.637H131.469V474.637H128.072V477.637ZM159.514 499.517L160.948 499.077L160.623 498.017H159.514V499.517ZM143.961 499.517V498.017H142.852L142.527 499.077L143.961 499.517ZM140.564 510.592V512.092H141.673L141.998 511.032L140.564 510.592ZM137.021 510.592L135.588 510.148L134.986 512.092H137.021V510.592ZM145.929 481.798L144.497 481.354L144.496 481.354L145.929 481.798ZM148.243 476.974L147.144 475.954L147.142 475.955L148.243 476.974ZM155.232 476.974L154.133 477.995L154.142 478.005L154.152 478.015L155.232 476.974ZM157.595 481.798L159.028 481.354L159.027 481.354L157.595 481.798ZM166.504 510.592V512.092H168.538L167.937 510.148L166.504 510.592ZM162.91 510.592L161.476 511.032L161.802 512.092H162.91V510.592ZM158.678 496.761V498.261H160.707L160.112 496.321L158.678 496.761ZM154.1 481.847L155.534 481.407L155.531 481.396L155.527 481.385L154.1 481.847ZM153.066 479.534L151.877 480.448L151.877 480.448L153.066 479.534ZM150.458 479.534L149.269 478.619L149.269 478.619L150.458 479.534ZM149.424 481.847L147.997 481.385L147.993 481.396L147.99 481.407L149.424 481.847ZM144.847 496.761L143.413 496.321L142.817 498.261H144.847V496.761ZM159.514 498.017H143.961V501.017H159.514V498.017ZM142.527 499.077L139.13 510.152L141.998 511.032L145.395 499.957L142.527 499.077ZM140.564 509.092H137.021V512.092H140.564V509.092ZM138.454 511.035L147.362 482.241L144.496 481.354L135.588 510.148L138.454 511.035ZM147.362 482.242C148.072 479.951 148.764 478.619 149.343 477.993L147.142 475.955C146.081 477.101 145.231 478.985 144.497 481.354L147.362 482.242ZM149.342 477.995C149.861 477.436 150.597 477.096 151.737 477.096V474.096C149.924 474.096 148.331 474.675 147.144 475.954L149.342 477.995ZM151.737 477.096C152.878 477.096 153.614 477.436 154.133 477.995L156.331 475.954C155.144 474.675 153.55 474.096 151.737 474.096V477.096ZM154.152 478.015C154.75 478.636 155.454 479.957 156.162 482.242L159.027 481.354C158.292 478.979 157.421 477.085 156.313 475.934L154.152 478.015ZM156.162 482.241L165.071 511.035L167.937 510.148L159.028 481.354L156.162 482.241ZM166.504 509.092H162.91V512.092H166.504V509.092ZM164.345 510.152L160.948 499.077L158.08 499.957L161.476 511.032L164.345 510.152ZM160.112 496.321L155.534 481.407L152.666 482.287L157.244 497.201L160.112 496.321ZM155.527 481.385C155.161 480.253 154.753 479.266 154.255 478.619L151.877 480.448C152.036 480.655 152.317 481.21 152.673 482.309L155.527 481.385ZM154.255 478.619C153.631 477.808 152.741 477.394 151.737 477.394V480.394C151.822 480.394 151.845 480.409 151.837 480.405C151.836 480.405 151.837 480.405 151.841 480.408C151.846 480.412 151.858 480.423 151.877 480.448L154.255 478.619ZM151.737 477.394C150.733 477.394 149.873 477.834 149.269 478.619L151.647 480.448C151.67 480.418 151.686 480.404 151.692 480.398C151.699 480.393 151.699 480.393 151.695 480.395C151.69 480.398 151.687 480.398 151.69 480.398C151.694 480.397 151.708 480.394 151.737 480.394V477.394ZM149.269 478.619C148.771 479.266 148.363 480.253 147.997 481.385L150.851 482.309C151.207 481.21 151.488 480.655 151.647 480.448L149.269 478.619ZM147.99 481.407L143.413 496.321L146.281 497.201L150.858 482.287L147.99 481.407ZM144.847 498.261H158.678V495.261H144.847V498.261ZM172.665 476.137V474.637H171.165V476.137H172.665ZM176.209 476.137H177.709V474.637H176.209V476.137ZM176.209 510.592V512.092H177.709V510.592H176.209ZM172.665 510.592H171.165V512.092H172.665V510.592ZM172.665 477.637H176.209V474.637H172.665V477.637ZM174.709 476.137V510.592H177.709V476.137H174.709ZM176.209 509.092H172.665V512.092H176.209V509.092ZM174.165 510.592V476.137H171.165V510.592H174.165ZM187.024 508.082L185.993 509.172L186.003 509.181L186.014 509.191L187.024 508.082ZM184.316 476.137V474.637H182.816V476.137H184.316ZM187.86 476.137H189.36V474.637H187.86V476.137ZM189.681 505.916L188.621 506.977L188.628 506.984L188.635 506.991L189.681 505.916ZM206.515 507.737H208.015V506.237H206.515V507.737ZM206.515 510.592V512.092H208.015V510.592H206.515ZM195.44 509.092C191.852 509.092 189.482 508.292 188.033 506.973L186.014 509.191C188.24 511.219 191.481 512.092 195.44 512.092V509.092ZM188.054 506.992C186.653 505.667 185.816 503.54 185.816 500.305H182.816C182.816 504.026 183.785 507.084 185.993 509.172L188.054 506.992ZM185.816 500.305V476.137H182.816V500.305H185.816ZM184.316 477.637H187.86V474.637H184.316V477.637ZM186.36 476.137V500.305H189.36V476.137H186.36ZM186.36 500.305C186.36 503.042 187.016 505.372 188.621 506.977L190.742 504.855C189.918 504.032 189.36 502.62 189.36 500.305H186.36ZM188.635 506.991C190.273 508.586 192.646 509.237 195.44 509.237V506.237C193.05 506.237 191.584 505.674 190.728 504.841L188.635 506.991ZM195.44 509.237H206.515V506.237H195.44V509.237ZM205.015 507.737V510.592H208.015V507.737H205.015ZM206.515 509.092H195.44V512.092H206.515V509.092ZM215.801 509.804L215.158 511.159L215.172 511.166L215.185 511.172L215.801 509.804ZM210.436 505.178L209.447 504.05L208.397 504.971L209.24 506.083L210.436 505.178ZM212.848 503.061L214.053 502.168L213.083 500.859L211.858 501.934L212.848 503.061ZM217.228 507.097L216.534 508.427L216.546 508.433L217.228 507.097ZM230.223 506.506L229.369 505.273L229.358 505.281L230.223 506.506ZM231.847 498.336L233.023 497.405L233.023 497.405L231.847 498.336ZM228.549 496.318L228.022 497.722L228.035 497.727L228.048 497.732L228.549 496.318ZM221.56 494.497L221.857 493.026L221.846 493.024L221.56 494.497ZM214.029 491.248L213.002 492.342L213.008 492.347L213.013 492.352L214.029 491.248ZM214.817 478.156L213.888 476.977L213.879 476.984L214.817 478.156ZM230.715 477.023L230.062 478.374L230.071 478.378L230.08 478.383L230.715 477.023ZM235.292 481.109L236.241 482.271L237.246 481.45L236.578 480.337L235.292 481.109ZM232.88 483.078L231.637 483.916L232.555 485.279L233.829 484.24L232.88 483.078ZM228.992 479.632L228.31 480.968L228.321 480.974L228.992 479.632ZM217.425 480.223L216.513 479.032L216.507 479.037L216.501 479.042L217.425 480.223ZM217.179 489.23L216.256 490.413L216.265 490.42L216.274 490.427L217.179 489.23ZM223.824 491.691L223.527 493.161L223.527 493.161L223.824 491.691ZM231.355 493.906L230.724 495.267L230.734 495.272L231.355 493.906ZM235.194 496.909L233.93 497.716L233.935 497.724L233.94 497.732L235.194 496.909ZM232.979 508.672L233.867 509.881L233.873 509.876L233.879 509.872L232.979 508.672ZM223.282 509.633C220.397 509.633 218.131 509.208 216.416 508.436L215.185 511.172C217.409 512.173 220.13 512.633 223.282 512.633V509.633ZM216.444 508.449C214.776 507.658 213.165 506.296 211.632 504.272L209.24 506.083C210.988 508.391 212.954 510.113 215.158 511.159L216.444 508.449ZM211.425 506.305L213.837 504.189L211.858 501.934L209.447 504.05L211.425 506.305ZM211.643 503.954C213.139 505.973 214.761 507.502 216.534 508.427L217.922 505.767C216.677 505.118 215.378 503.956 214.053 502.168L211.643 503.954ZM216.546 508.433C218.362 509.36 220.568 509.778 223.086 509.778V506.778C220.878 506.778 219.179 506.409 217.91 505.761L216.546 508.433ZM223.086 509.778C226.332 509.778 229.062 509.161 231.088 507.732L229.358 505.281C228.036 506.214 226.008 506.778 223.086 506.778V509.778ZM231.076 507.74C233.201 506.269 234.282 504.144 234.282 501.535H231.282C231.282 503.192 230.657 504.381 229.369 505.273L231.076 507.74ZM234.282 501.535C234.282 499.966 233.918 498.535 233.023 497.405L230.671 499.267C231.023 499.712 231.282 500.413 231.282 501.535H234.282ZM233.023 497.405C232.143 496.294 230.733 495.5 229.05 494.904L228.048 497.732C229.515 498.251 230.303 498.803 230.671 499.267L233.023 497.405ZM229.076 494.913C227.387 494.28 224.965 493.655 221.857 493.026L221.263 495.967C224.324 496.586 226.561 497.174 228.022 497.722L229.076 494.913ZM221.846 493.024C218.602 492.394 216.398 491.39 215.045 490.144L213.013 492.352C214.941 494.126 217.758 495.287 221.274 495.969L221.846 493.024ZM215.056 490.155C213.795 488.971 213.117 487.373 213.117 485.194H210.117C210.117 488.069 211.047 490.506 213.002 492.342L215.056 490.155ZM213.117 485.194C213.117 482.615 214.013 480.719 215.754 479.327L213.879 476.984C211.355 479.004 210.117 481.801 210.117 485.194H213.117ZM215.745 479.334C217.563 477.901 220.166 477.096 223.725 477.096V474.096C219.738 474.096 216.401 474.997 213.888 476.977L215.745 479.334ZM223.725 477.096C226.241 477.096 228.338 477.541 230.062 478.374L231.367 475.673C229.154 474.603 226.591 474.096 223.725 474.096V477.096ZM230.08 478.383C231.787 479.179 233.082 480.341 234.006 481.88L236.578 480.337C235.337 478.267 233.58 476.705 231.349 475.664L230.08 478.383ZM234.344 479.947L231.932 481.916L233.829 484.24L236.241 482.271L234.344 479.947ZM234.124 482.239C232.968 480.523 231.477 479.198 229.663 478.29L228.321 480.974C229.657 481.642 230.759 482.613 231.637 483.916L234.124 482.239ZM229.674 478.296C227.887 477.383 225.857 476.951 223.627 476.951V479.951C225.466 479.951 227.013 480.306 228.31 480.968L229.674 478.296ZM223.627 476.951C220.815 476.951 218.393 477.592 216.513 479.032L218.337 481.414C219.542 480.491 221.255 479.951 223.627 479.951V476.951ZM216.501 479.042C214.61 480.521 213.661 482.558 213.661 484.997H216.661C216.661 483.433 217.222 482.287 218.35 481.404L216.501 479.042ZM213.661 484.997C213.661 487.211 214.531 489.066 216.256 490.413L218.102 488.048C217.137 487.294 216.661 486.328 216.661 484.997H213.661ZM216.274 490.427C217.895 491.652 220.381 492.526 223.527 493.161L224.121 490.221C221.098 489.61 219.154 488.843 218.084 488.034L216.274 490.427ZM223.527 493.161C226.728 493.808 229.107 494.519 230.724 495.267L231.985 492.545C230.058 491.653 227.417 490.887 224.121 490.221L223.527 493.161ZM230.734 495.272C232.379 496.02 233.383 496.861 233.93 497.716L236.458 496.101C235.495 494.594 233.939 493.433 231.975 492.541L230.734 495.272ZM233.94 497.732C234.486 498.562 234.826 499.756 234.826 501.437H237.826C237.826 499.376 237.411 497.552 236.447 496.085L233.94 497.732ZM234.826 501.437C234.826 504.185 233.88 506.121 232.079 507.472L233.879 509.872C236.541 507.876 237.826 504.989 237.826 501.437H234.826ZM232.09 507.464C230.22 508.839 227.355 509.633 223.282 509.633V512.633C227.676 512.633 231.275 511.787 233.867 509.881L232.09 507.464Z" fill="white" mask="url(#path-118-outside-1_39_10341)"/>
<mask id="path-120-outside-2_39_10341" maskUnits="userSpaceOnUse" x="26.8438" y="377.518" width="287" height="59" fill="black">
<rect fill="white" x="26.8438" y="377.518" width="287" height="59"/>
<path d="M45.6848 433.518C39.893 433.518 35.5869 432.233 32.7666 429.665C29.9966 427.046 28.6116 423.067 28.6116 417.729V380.636H34.0508V417.729C34.0508 421.607 34.9826 424.477 36.846 426.341C38.7598 428.204 41.7061 429.136 45.6848 429.136H62.6825V433.518H45.6848ZM94.386 434.349C88.141 434.349 83.2305 433.014 79.6547 430.345C76.1293 427.625 74.3666 423.898 74.3666 419.164V380.636H79.8058V419.164C79.8058 422.538 81.0901 425.182 83.6586 427.096C86.2272 429.01 89.803 429.967 94.386 429.967C98.9691 429.967 102.545 429.01 105.113 427.096C107.682 425.182 108.966 422.538 108.966 419.164V380.636H114.405V419.164C114.405 423.898 112.618 427.625 109.042 430.345C105.516 433.014 100.631 434.349 94.386 434.349ZM147.639 434.349C145.474 434.349 143.711 433.618 142.351 432.158C141.042 430.697 139.883 428.255 138.876 424.83L125.731 380.636H131.171L144.24 424.754C144.693 426.366 145.172 427.524 145.675 428.229C146.229 428.935 146.884 429.287 147.639 429.287C148.345 429.287 148.949 428.96 149.453 428.305C149.956 427.6 150.46 426.416 150.963 424.754L164.033 380.636H169.548L156.403 424.83C155.395 428.204 154.212 430.647 152.852 432.158C151.492 433.618 149.755 434.349 147.639 434.349ZM198.905 434.349C191.905 434.349 186.566 432.712 182.89 429.438C179.263 426.165 177.45 421.38 177.45 415.085V398.993C177.45 392.799 179.213 388.065 182.738 384.791C186.314 381.467 191.451 379.805 198.15 379.805C202.531 379.805 206.283 380.51 209.406 381.92C212.528 383.28 215.097 385.42 217.111 388.342L213.259 391.137C211.496 388.77 209.406 387.032 206.988 385.924C204.621 384.766 201.751 384.187 198.376 384.187C193.34 384.187 189.487 385.446 186.818 387.964C184.199 390.482 182.89 394.159 182.89 398.993V415.085C182.89 419.97 184.224 423.672 186.893 426.19C189.613 428.708 193.592 429.967 198.83 429.967C202.305 429.967 205.251 429.388 207.668 428.229C210.086 427.071 212.176 425.258 213.939 422.79L217.791 425.736C215.525 428.758 212.906 430.949 209.935 432.309C206.963 433.669 203.287 434.349 198.905 434.349ZM260.84 416.52H236.967L231.755 433.518H226.316L239.989 389.324C241.097 385.748 242.281 383.28 243.54 381.92C244.849 380.51 246.637 379.805 248.904 379.805C251.17 379.805 252.958 380.51 254.267 381.92C255.577 383.28 256.785 385.748 257.893 389.324L271.567 433.518H266.052L260.84 416.52ZM259.555 412.289L252.53 389.399C251.976 387.687 251.447 386.503 250.943 385.849C250.44 385.194 249.76 384.866 248.904 384.866C248.098 384.866 247.443 385.194 246.939 385.849C246.436 386.503 245.907 387.687 245.353 389.399L238.327 412.289H259.555ZM289.514 385.018H272.366V380.636H312.102V385.018H294.954V433.518H289.514V385.018Z"/>
</mask>
<path d="M45.6848 433.518C39.893 433.518 35.5869 432.233 32.7666 429.665C29.9966 427.046 28.6116 423.067 28.6116 417.729V380.636H34.0508V417.729C34.0508 421.607 34.9826 424.477 36.846 426.341C38.7598 428.204 41.7061 429.136 45.6848 429.136H62.6825V433.518H45.6848ZM94.386 434.349C88.141 434.349 83.2305 433.014 79.6547 430.345C76.1293 427.625 74.3666 423.898 74.3666 419.164V380.636H79.8058V419.164C79.8058 422.538 81.0901 425.182 83.6586 427.096C86.2272 429.01 89.803 429.967 94.386 429.967C98.9691 429.967 102.545 429.01 105.113 427.096C107.682 425.182 108.966 422.538 108.966 419.164V380.636H114.405V419.164C114.405 423.898 112.618 427.625 109.042 430.345C105.516 433.014 100.631 434.349 94.386 434.349ZM147.639 434.349C145.474 434.349 143.711 433.618 142.351 432.158C141.042 430.697 139.883 428.255 138.876 424.83L125.731 380.636H131.171L144.24 424.754C144.693 426.366 145.172 427.524 145.675 428.229C146.229 428.935 146.884 429.287 147.639 429.287C148.345 429.287 148.949 428.96 149.453 428.305C149.956 427.6 150.46 426.416 150.963 424.754L164.033 380.636H169.548L156.403 424.83C155.395 428.204 154.212 430.647 152.852 432.158C151.492 433.618 149.755 434.349 147.639 434.349ZM198.905 434.349C191.905 434.349 186.566 432.712 182.89 429.438C179.263 426.165 177.45 421.38 177.45 415.085V398.993C177.45 392.799 179.213 388.065 182.738 384.791C186.314 381.467 191.451 379.805 198.15 379.805C202.531 379.805 206.283 380.51 209.406 381.92C212.528 383.28 215.097 385.42 217.111 388.342L213.259 391.137C211.496 388.77 209.406 387.032 206.988 385.924C204.621 384.766 201.751 384.187 198.376 384.187C193.34 384.187 189.487 385.446 186.818 387.964C184.199 390.482 182.89 394.159 182.89 398.993V415.085C182.89 419.97 184.224 423.672 186.893 426.19C189.613 428.708 193.592 429.967 198.83 429.967C202.305 429.967 205.251 429.388 207.668 428.229C210.086 427.071 212.176 425.258 213.939 422.79L217.791 425.736C215.525 428.758 212.906 430.949 209.935 432.309C206.963 433.669 203.287 434.349 198.905 434.349ZM260.84 416.52H236.967L231.755 433.518H226.316L239.989 389.324C241.097 385.748 242.281 383.28 243.54 381.92C244.849 380.51 246.637 379.805 248.904 379.805C251.17 379.805 252.958 380.51 254.267 381.92C255.577 383.28 256.785 385.748 257.893 389.324L271.567 433.518H266.052L260.84 416.52ZM259.555 412.289L252.53 389.399C251.976 387.687 251.447 386.503 250.943 385.849C250.44 385.194 249.76 384.866 248.904 384.866C248.098 384.866 247.443 385.194 246.939 385.849C246.436 386.503 245.907 387.687 245.353 389.399L238.327 412.289H259.555ZM289.514 385.018H272.366V380.636H312.102V385.018H294.954V433.518H289.514V385.018Z" fill="white"/>
<path d="M32.7666 429.665L31.7361 430.755L31.7462 430.764L31.7566 430.774L32.7666 429.665ZM28.6116 380.636V379.136H27.1116V380.636H28.6116ZM34.0508 380.636H35.5508V379.136H34.0508V380.636ZM36.846 426.341L35.7853 427.401L35.7924 427.409L35.7996 427.415L36.846 426.341ZM62.6825 429.136H64.1825V427.636H62.6825V429.136ZM62.6825 433.518V435.018H64.1825V433.518H62.6825ZM45.6848 432.018C40.0788 432.018 36.2077 430.77 33.7766 428.556L31.7566 430.774C34.9661 433.697 39.7072 435.018 45.6848 435.018V432.018ZM33.7971 428.575C31.4307 426.338 30.1116 422.824 30.1116 417.729H27.1116C27.1116 423.311 28.5624 427.754 31.7361 430.755L33.7971 428.575ZM30.1116 417.729V380.636H27.1116V417.729H30.1116ZM28.6116 382.136H34.0508V379.136H28.6116V382.136ZM32.5508 380.636V417.729H35.5508V380.636H32.5508ZM32.5508 417.729C32.5508 421.818 33.5315 425.148 35.7853 427.401L37.9067 425.28C36.4336 423.807 35.5508 421.396 35.5508 417.729H32.5508ZM35.7996 427.415C38.1046 429.66 41.504 430.636 45.6848 430.636V427.636C41.9081 427.636 39.4151 426.749 37.8924 425.266L35.7996 427.415ZM45.6848 430.636H62.6825V427.636H45.6848V430.636ZM61.1825 429.136V433.518H64.1825V429.136H61.1825ZM62.6825 432.018H45.6848V435.018H62.6825V432.018ZM79.6547 430.345L78.7385 431.532L78.7479 431.54L78.7574 431.547L79.6547 430.345ZM74.3666 380.636V379.136H72.8666V380.636H74.3666ZM79.8058 380.636H81.3058V379.136H79.8058V380.636ZM83.6586 427.096L82.7624 428.299L82.7624 428.299L83.6586 427.096ZM105.113 427.096L106.01 428.299L106.01 428.299L105.113 427.096ZM108.966 380.636V379.136H107.466V380.636H108.966ZM114.405 380.636H115.905V379.136H114.405V380.636ZM109.042 430.345L109.947 431.541L109.95 431.539L109.042 430.345ZM94.386 432.849C88.3383 432.849 83.7832 431.555 80.552 429.143L78.7574 431.547C82.6779 434.473 87.9436 435.849 94.386 435.849V432.849ZM80.5709 429.157C77.4398 426.742 75.8666 423.467 75.8666 419.164H72.8666C72.8666 424.329 74.8187 428.509 78.7385 431.532L80.5709 429.157ZM75.8666 419.164V380.636H72.8666V419.164H75.8666ZM74.3666 382.136H79.8058V379.136H74.3666V382.136ZM78.3058 380.636V419.164H81.3058V380.636H78.3058ZM78.3058 419.164C78.3058 422.983 79.7908 426.085 82.7624 428.299L84.5548 425.893C82.3894 424.28 81.3058 422.094 81.3058 419.164H78.3058ZM82.7624 428.299C85.6802 430.473 89.6146 431.467 94.386 431.467V428.467C89.9913 428.467 86.7741 427.547 84.5548 425.893L82.7624 428.299ZM94.386 431.467C99.1575 431.467 103.092 430.473 106.01 428.299L104.217 425.893C101.998 427.547 98.7807 428.467 94.386 428.467V431.467ZM106.01 428.299C108.981 426.085 110.466 422.983 110.466 419.164H107.466C107.466 422.094 106.383 424.28 104.217 425.893L106.01 428.299ZM110.466 419.164V380.636H107.466V419.164H110.466ZM108.966 382.136H114.405V379.136H108.966V382.136ZM112.905 380.636V419.164H115.905V380.636H112.905ZM112.905 419.164C112.905 423.459 111.314 426.732 108.134 429.151L109.95 431.539C113.921 428.518 115.905 424.337 115.905 419.164H112.905ZM108.136 429.149C104.96 431.554 100.435 432.849 94.386 432.849V435.849C100.827 435.849 106.073 434.474 109.947 431.541L108.136 429.149ZM142.351 432.158L141.234 433.159L141.244 433.17L141.253 433.18L142.351 432.158ZM138.876 424.83L140.315 424.407L140.314 424.402L138.876 424.83ZM125.731 380.636V379.136H123.72L124.294 381.064L125.731 380.636ZM131.171 380.636L132.609 380.21L132.291 379.136H131.171V380.636ZM144.24 424.754L145.684 424.348L145.681 424.338L145.678 424.328L144.24 424.754ZM145.675 428.229L144.455 429.101L144.475 429.129L144.496 429.156L145.675 428.229ZM149.453 428.305L150.641 429.22L150.658 429.198L150.673 429.177L149.453 428.305ZM150.963 424.754L152.399 425.189L152.402 425.18L150.963 424.754ZM164.033 380.636V379.136H162.913L162.595 380.21L164.033 380.636ZM169.548 380.636L170.985 381.064L171.559 379.136H169.548V380.636ZM156.403 424.83L157.84 425.259L157.84 425.258L156.403 424.83ZM152.852 432.158L153.95 433.18L153.959 433.171L153.967 433.161L152.852 432.158ZM147.639 432.849C145.851 432.849 144.499 432.264 143.449 431.136L141.253 433.18C142.923 434.973 145.097 435.849 147.639 435.849V432.849ZM143.468 431.156C142.385 429.948 141.303 427.765 140.315 424.407L137.437 425.253C138.464 428.744 139.699 431.447 141.234 433.159L143.468 431.156ZM140.314 424.402L127.169 380.208L124.294 381.064L137.438 425.258L140.314 424.402ZM125.731 382.136H131.171V379.136H125.731V382.136ZM129.732 381.062L142.802 425.18L145.678 424.328L132.609 380.21L129.732 381.062ZM142.796 425.16C143.261 426.813 143.795 428.178 144.455 429.101L146.896 427.358C146.548 426.871 146.126 425.919 145.684 424.348L142.796 425.16ZM144.496 429.156C145.275 430.147 146.335 430.787 147.639 430.787V427.787C147.433 427.787 147.184 427.722 146.855 427.303L144.496 429.156ZM147.639 430.787C148.893 430.787 149.909 430.172 150.641 429.22L148.264 427.39C147.989 427.747 147.796 427.787 147.639 427.787V430.787ZM150.673 429.177C151.326 428.263 151.886 426.883 152.399 425.189L149.528 424.319C149.034 425.949 148.587 426.936 148.232 427.433L150.673 429.177ZM152.402 425.18L165.471 381.062L162.595 380.21L149.525 424.328L152.402 425.18ZM164.033 382.136H169.548V379.136H164.033V382.136ZM168.11 380.208L154.965 424.402L157.84 425.258L170.985 381.064L168.11 380.208ZM154.965 424.401C153.982 427.696 152.877 429.888 151.737 431.154L153.967 433.161C155.547 431.406 156.809 428.712 157.84 425.259L154.965 424.401ZM151.754 431.136C150.697 432.271 149.366 432.849 147.639 432.849V435.849C150.143 435.849 152.288 434.965 153.95 433.18L151.754 431.136ZM182.89 429.438L181.884 430.552L181.892 430.558L182.89 429.438ZM182.738 384.791L183.759 385.89L183.76 385.89L182.738 384.791ZM209.406 381.92L208.789 383.287L208.798 383.291L208.807 383.295L209.406 381.92ZM217.111 388.342L217.992 389.556L219.178 388.696L218.346 387.49L217.111 388.342ZM213.259 391.137L212.056 392.033L212.94 393.221L214.14 392.351L213.259 391.137ZM206.988 385.924L206.329 387.271L206.346 387.28L206.363 387.288L206.988 385.924ZM186.818 387.964L185.789 386.873L185.783 386.878L185.778 386.883L186.818 387.964ZM186.893 426.19L185.864 427.281L185.874 427.29L186.893 426.19ZM207.668 428.229L208.317 429.582L208.317 429.582L207.668 428.229ZM213.939 422.79L214.85 421.599L213.619 420.657L212.718 421.918L213.939 422.79ZM217.791 425.736L218.991 426.636L219.883 425.448L218.703 424.545L217.791 425.736ZM209.935 432.309L210.559 433.673L210.559 433.673L209.935 432.309ZM198.905 432.849C192.118 432.849 187.192 431.261 183.887 428.318L181.892 430.558C185.94 434.163 191.691 435.849 198.905 435.849V432.849ZM183.895 428.325C180.669 425.412 178.95 421.086 178.95 415.085H175.95C175.95 421.674 177.858 426.917 181.884 430.552L183.895 428.325ZM178.95 415.085V398.993H175.95V415.085H178.95ZM178.95 398.993C178.95 393.089 180.621 388.804 183.759 385.89L181.718 383.692C177.805 387.325 175.95 392.509 175.95 398.993H178.95ZM183.76 385.89C186.969 382.907 191.688 381.305 198.15 381.305V378.305C191.215 378.305 185.66 380.027 181.717 383.692L183.76 385.89ZM198.15 381.305C202.376 381.305 205.906 381.986 208.789 383.287L210.023 380.553C206.661 379.035 202.687 378.305 198.15 378.305V381.305ZM208.807 383.295C211.662 384.539 214.014 386.492 215.877 389.193L218.346 387.49C216.18 384.349 213.395 382.021 210.005 380.545L208.807 383.295ZM216.231 387.127L212.378 389.923L214.14 392.351L217.992 389.556L216.231 387.127ZM214.462 390.241C212.565 387.694 210.284 385.785 207.613 384.561L206.363 387.288C208.528 388.28 210.426 389.845 212.056 392.033L214.462 390.241ZM207.648 384.577C205.026 383.294 201.917 382.687 198.376 382.687V385.687C201.584 385.687 204.217 386.238 206.329 387.271L207.648 384.577ZM198.376 382.687C193.102 382.687 188.826 384.007 185.789 386.873L187.847 389.055C190.148 386.884 193.578 385.687 198.376 385.687V382.687ZM185.778 386.883C182.777 389.768 181.39 393.891 181.39 398.993H184.39C184.39 394.426 185.621 391.196 187.858 389.045L185.778 386.883ZM181.39 398.993V415.085H184.39V398.993H181.39ZM181.39 415.085C181.39 420.24 182.804 424.394 185.864 427.281L187.923 425.099C185.644 422.949 184.39 419.7 184.39 415.085H181.39ZM185.874 427.29C188.968 430.155 193.37 431.467 198.83 431.467V428.467C193.814 428.467 190.258 427.261 187.913 425.089L185.874 427.29ZM198.83 431.467C202.465 431.467 205.646 430.862 208.317 429.582L207.02 426.877C204.856 427.914 202.144 428.467 198.83 428.467V431.467ZM208.317 429.582C210.991 428.301 213.269 426.308 215.159 423.662L212.718 421.918C211.083 424.208 209.181 425.841 207.02 426.877L208.317 429.582ZM213.027 423.982L216.88 426.928L218.703 424.545L214.85 421.599L213.027 423.982ZM216.591 424.836C214.452 427.689 212.021 429.704 209.311 430.945L210.559 433.673C213.791 432.194 216.598 429.827 218.991 426.636L216.591 424.836ZM209.311 430.945C206.59 432.19 203.141 432.849 198.905 432.849V435.849C203.432 435.849 207.337 435.147 210.559 433.673L209.311 430.945ZM260.84 416.52L262.274 416.08L261.949 415.02H260.84V416.52ZM236.967 416.52V415.02H235.859L235.533 416.08L236.967 416.52ZM231.755 433.518V435.018H232.864L233.189 433.957L231.755 433.518ZM226.316 433.518L224.883 433.074L224.281 435.018H226.316V433.518ZM239.989 389.324L238.556 388.88L238.556 388.88L239.989 389.324ZM243.54 381.92L242.441 380.9L242.439 380.901L243.54 381.92ZM254.267 381.92L253.168 382.941L253.177 382.951L253.187 382.961L254.267 381.92ZM257.893 389.324L259.326 388.88L259.326 388.88L257.893 389.324ZM271.567 433.518V435.018H273.601L273 433.074L271.567 433.518ZM266.052 433.518L264.618 433.957L264.943 435.018H266.052V433.518ZM259.555 412.289V413.789H261.585L260.989 411.849L259.555 412.289ZM252.53 389.399L253.964 388.959L253.96 388.948L253.957 388.937L252.53 389.399ZM250.943 385.849L249.754 386.763L249.754 386.763L250.943 385.849ZM246.939 385.849L245.751 384.934L245.75 384.934L246.939 385.849ZM245.353 389.399L243.926 388.937L243.922 388.948L243.919 388.959L245.353 389.399ZM238.327 412.289L236.893 411.849L236.298 413.789H238.327V412.289ZM260.84 415.02H236.967V418.02H260.84V415.02ZM235.533 416.08L230.321 433.078L233.189 433.957L238.402 416.96L235.533 416.08ZM231.755 432.018H226.316V435.018H231.755V432.018ZM227.749 433.961L241.422 389.767L238.556 388.88L224.883 433.074L227.749 433.961ZM241.422 389.768C242.518 386.231 243.622 384.039 244.641 382.939L242.439 380.901C240.939 382.521 239.677 385.265 238.556 388.88L241.422 389.768ZM244.639 382.941C245.614 381.891 246.974 381.305 248.904 381.305V378.305C246.301 378.305 244.085 379.129 242.441 380.9L244.639 382.941ZM248.904 381.305C250.834 381.305 252.193 381.891 253.168 382.941L255.367 380.9C253.723 379.129 251.506 378.305 248.904 378.305V381.305ZM253.187 382.961C254.241 384.055 255.367 386.237 256.461 389.768L259.326 388.88C258.204 385.259 256.913 382.505 255.348 380.88L253.187 382.961ZM256.461 389.767L270.134 433.961L273 433.074L259.326 388.88L256.461 389.767ZM271.567 432.018H266.052V435.018H271.567V432.018ZM267.486 433.078L262.274 416.08L259.406 416.96L264.618 433.957L267.486 433.078ZM260.989 411.849L253.964 388.959L251.096 389.839L258.122 412.73L260.989 411.849ZM253.957 388.937C253.397 387.208 252.805 385.809 252.132 384.934L249.754 386.763C250.089 387.198 250.554 388.165 251.103 389.861L253.957 388.937ZM252.132 384.934C251.333 383.895 250.206 383.366 248.904 383.366V386.366C249.314 386.366 249.547 386.493 249.754 386.763L252.132 384.934ZM248.904 383.366C247.619 383.366 246.53 383.921 245.751 384.934L248.128 386.763C248.356 386.467 248.577 386.366 248.904 386.366V383.366ZM245.75 384.934C245.078 385.809 244.485 387.208 243.926 388.937L246.78 389.861C247.329 388.165 247.794 387.198 248.128 386.763L245.75 384.934ZM243.919 388.959L236.893 411.849L239.761 412.73L246.787 389.839L243.919 388.959ZM238.327 413.789H259.555V410.789H238.327V413.789ZM289.514 385.018H291.014V383.518H289.514V385.018ZM272.366 385.018H270.866V386.518H272.366V385.018ZM272.366 380.636V379.136H270.866V380.636H272.366ZM312.102 380.636H313.602V379.136H312.102V380.636ZM312.102 385.018V386.518H313.602V385.018H312.102ZM294.954 385.018V383.518H293.454V385.018H294.954ZM294.954 433.518V435.018H296.454V433.518H294.954ZM289.514 433.518H288.014V435.018H289.514V433.518ZM289.514 383.518H272.366V386.518H289.514V383.518ZM273.866 385.018V380.636H270.866V385.018H273.866ZM272.366 382.136H312.102V379.136H272.366V382.136ZM310.602 380.636V385.018H313.602V380.636H310.602ZM312.102 383.518H294.954V386.518H312.102V383.518ZM293.454 385.018V433.518H296.454V385.018H293.454ZM294.954 432.018H289.514V435.018H294.954V432.018ZM291.014 433.518V385.018H288.014V433.518H291.014Z" fill="white" mask="url(#path-120-outside-2_39_10341)"/>
</svg>
